<svg width="338" height="487" viewBox="0 0 338 487" fill="none" xmlns="http://www.w3.org/2000/svg">
<g clip-path="url(#clip0_30_2)">
<path d="M301.878 113.296L301.538 113.096L300.754 112.857C301.07 113.123 301.466 113.278 301.878 113.296Z" fill="#E0E0E0"/>
<path d="M302.04 113.222C301.992 113.216 301.946 113.205 301.901 113.189C301.897 113.22 301.897 113.251 301.901 113.282C301.951 113.275 301.999 113.255 302.04 113.222Z" fill="#E0E0E0"/>
<path d="M306.474 148.079L307.042 147.755L307.253 147.637L307.444 147.432C307.085 147.587 306.755 147.806 306.474 148.079Z" fill="#E0E0E0"/>
<path d="M302.92 114.014L302.368 113.488L301.993 113.285C302.195 113.64 302.527 113.902 302.92 114.014Z" fill="#E0E0E0"/>
<path d="M164.145 451.664C163.699 451.857 163.307 452.159 163.008 452.543L163.36 452.316C163.6 452.096 163.939 451.836 164.145 451.664Z" fill="#E0E0E0"/>
<path d="M244.707 435.902C244.707 435.396 244.462 435.489 244.521 437.284C244.521 437.138 244.581 436.992 244.607 436.853C244.641 436.533 244.668 436.22 244.707 435.902Z" fill="#E0E0E0"/>
<path d="M236.404 451.664C235.957 451.857 235.565 452.159 235.265 452.543L235.618 452.316C235.856 452.096 236.198 451.836 236.404 451.664Z" fill="#E0E0E0"/>
<path d="M107.372 455.401C107.038 455.11 106.63 454.92 106.193 454.851C106.547 455.021 106.9 455.192 107.136 455.322L107.372 455.401Z" fill="#E0E0E0"/>
<path d="M94.5587 443.213C94.5057 442.69 94.3451 442.184 94.087 441.724C94.2698 442.202 94.4229 442.691 94.5454 443.187L94.5587 443.213Z" fill="#E0E0E0"/>
<path d="M180.343 225.028C162.813 232.517 142.918 241.008 117.133 241.008C106.346 240.986 95.6117 239.51 85.2217 236.619L103.055 419.311C103.686 426.947 107.172 434.067 112.821 439.257C118.47 444.446 125.868 447.326 133.548 447.325C133.548 447.325 158.834 448.635 167.27 448.635C176.352 448.635 203.581 447.325 203.581 447.325C211.259 447.325 218.655 444.443 224.302 439.254C229.951 434.064 233.435 426.946 234.067 419.311L253.168 217.428C244.632 214.52 236.017 212.586 226.306 212.586C209.51 212.58 195.977 218.353 180.343 225.028Z" fill="#E0E0E0"/>
<path d="M30.0278 147.051L30.3487 147.352L30.5581 147.478C30.3968 147.317 30.219 147.174 30.0278 147.051Z" fill="#E0E0E0"/>
<path d="M335.646 130.164L332.96 116.648C330.55 104.521 325.08 93.0627 312.605 88.6795C308.607 87.2775 304.069 86.6748 301.003 83.7724C297.936 80.87 297.031 76.3624 296.322 72.1825C295.008 64.5106 293.774 56.832 292.427 49.1732C291.266 42.5889 290.347 35.1921 287.32 29.1515C283.38 21.0405 275.206 16.2971 267.077 13.1589C262.911 11.6074 258.66 10.295 254.344 9.22793C234.036 3.88179 212.684 1.91631 191.791 0.79598C166.713 -0.584769 141.568 -0.168768 116.55 2.04079C97.9289 3.7311 78.3161 5.77522 60.6206 12.2024C54.1531 14.5544 47.4886 17.3781 42.5707 22.3639C36.5365 28.4897 34.5667 37.9634 38.9725 45.6026C42.1045 51.0274 47.4098 54.8601 53.0369 57.3955C60.3665 60.6624 68.0211 63.1484 75.8736 64.812C97.7385 69.6339 120.385 71.5274 142.723 72.3333C167.48 73.3303 192.279 72.5222 216.918 69.9157C223.011 69.2474 229.094 68.4459 235.166 67.5112C242.316 66.4171 246.905 57.0876 244.798 50.5883C242.277 42.8181 235.5 39.8043 227.837 40.9772C226.709 41.1541 225.586 41.3178 224.456 41.4816L223.642 41.5995C221.046 41.9272 218.45 42.2329 215.855 42.5168C210.493 43.0933 205.118 43.5651 199.728 43.9319C187.661 44.7705 175.559 45.1571 163.464 45.1767C151.58 45.1767 139.689 44.8426 127.83 44.0629C122.42 43.7091 117.023 43.2592 111.639 42.7133C109.19 42.4578 106.747 42.1892 104.305 41.8878L101.98 41.593L101.475 41.5209L99.0648 41.1737C94.1403 40.4333 89.2158 39.5817 84.3438 38.553C83.8522 38.4441 83.4124 38.1713 83.0973 37.7794C82.7821 37.3875 82.6103 36.9 82.6103 36.3975C82.6103 35.8951 82.7821 35.4076 83.0973 35.0157C83.4124 34.6237 83.8522 34.3509 84.3438 34.2421H84.4357C88.6577 33.3445 92.9125 32.578 97.1804 31.9097C98.603 31.6869 100.03 31.4685 101.461 31.2546H101.501C104.173 31.0777 106.859 30.5993 109.518 30.2848C132.654 27.8835 155.929 27.0649 179.177 27.8346C190.465 28.1621 201.744 28.8238 212.979 29.9639C215.395 30.2127 217.799 30.4749 220.201 30.7698C221.12 30.881 222.046 31.012 222.972 31.1234L224.837 31.3921C230.274 32.2001 235.682 33.1806 241.062 34.3337C249.033 36.0634 259.269 36.6269 262.815 45.3406C263.945 48.1052 264.456 51.178 265.081 54.0804L265.875 57.7821C265.896 57.8484 265.91 57.9163 265.92 57.9851C267.799 66.7207 269.678 75.4561 271.561 84.1917C271.699 84.837 271.703 85.5038 271.571 86.1504C271.439 86.797 271.175 87.4096 270.796 87.95C270.417 88.4903 269.928 88.9469 269.365 89.2911C268.801 89.6353 268.171 89.8598 267.516 89.9506H267.464L266.314 90.1078L265.178 90.2585C261.581 90.7259 257.978 91.1626 254.371 91.5688C247.266 92.3768 240.151 93.0757 233.025 93.6653C218.864 94.8403 204.675 95.6112 190.457 95.9781C183.213 96.1703 175.97 96.2598 168.731 96.2467C139.913 96.224 111.119 94.5528 82.4922 91.2413C79.3929 90.8743 76.2938 90.4813 73.1947 90.0816C75.5978 90.3895 71.4481 89.8458 70.6077 89.7278C68.6378 89.4526 66.6681 89.1665 64.6982 88.8696C58.0862 87.8802 51.5136 86.6616 44.9148 85.5938C36.937 84.2834 29.3073 84.9386 22.0913 88.8696C16.1679 92.1037 11.3739 97.0634 8.34855 103.087C5.23625 109.507 4.31044 116.498 2.91844 123.397C1.52645 130.296 -0.640351 137.719 0.180403 144.801C1.94667 160.085 12.6559 172.508 28.0598 175.286C42.5511 177.906 57.1211 180.029 71.7305 181.837C129.119 188.85 187.098 189.689 244.666 184.34C249.355 183.903 254.036 183.427 258.711 182.911C260.172 182.752 261.65 182.92 263.036 183.403C264.423 183.886 265.683 184.673 266.726 185.706C267.769 186.739 268.567 187.991 269.061 189.371C269.555 190.752 269.734 192.225 269.584 193.682L268.128 207.821C265.189 236.391 262.252 264.957 259.315 293.523C256.252 323.52 253.167 353.516 250.064 383.51C249.188 391.957 248.313 400.402 247.437 408.845C246.597 417.159 246.479 425.735 244.897 433.951C242.401 446.87 233.636 454.804 220.844 457.707C209.127 460.367 197.156 461.765 185.138 461.873C171.817 461.946 158.501 461.356 145.178 461.428C130.957 461.507 113.536 460.197 102.558 449.635C92.9125 440.358 91.5796 425.833 90.2664 413.273C88.5154 396.646 86.7797 380.019 85.0595 363.396L75.4075 270.959L69.1631 211.15C69.058 210.16 68.953 209.184 68.8545 208.188C68.1061 201.053 63.0435 194.069 55.0659 194.43C48.2372 194.731 40.4762 200.522 41.2772 208.188L45.9063 252.529L55.4796 344.252C58.2067 370.306 60.9272 396.364 63.6411 422.426C64.1664 427.419 64.6588 432.424 65.2103 437.416C68.211 464.698 89.091 479.399 114.948 483.54C130.05 485.964 145.519 486.462 160.845 486.71C180.49 487.026 200.332 487.779 219.656 484.228C248.291 478.986 269.775 459.908 272.841 430.314C273.717 421.771 274.592 413.226 275.468 404.677C278.378 376.41 281.286 348.139 284.187 319.866L293.682 227.489L298.035 185.153C298.252 183.054 299.141 181.079 300.57 179.523C301.997 177.967 303.891 176.91 305.968 176.511C314.155 174.918 321.981 172.2 327.805 165.982C337.077 156.082 338.922 143.176 335.646 130.164ZM27.6395 139.298C27.7642 139.238 27.5345 140.306 27.436 140.804C27.4162 140.051 27.4557 139.383 27.6395 139.298ZM28.434 145.43C28.4998 145.384 28.6967 145.646 28.9002 145.96C28.5916 145.673 28.4012 145.456 28.434 145.43ZM29.2154 146.458C29.6488 147.238 29.4977 146.936 29.2154 146.458ZM30.7847 147.729H30.8241C30.8241 147.775 30.8963 147.822 30.9225 147.867C30.879 147.817 30.8373 147.77 30.7847 147.729ZM305.586 145.83C302.645 148.62 298.212 149.918 293.833 150.566C244.72 157.839 194.889 161.521 145.238 159.895C109.702 158.684 74.5407 154.747 39.3599 149.787C35.9127 149.302 32.1766 148.673 29.8063 146.138C25.3415 141.354 27.5345 131.724 28.6967 125.945C29.7603 120.652 31.7958 113.595 38.1058 112.842C47.9549 111.689 59.3929 115.836 69.1369 117.31C80.8681 119.097 92.6433 120.527 104.462 121.601C154.903 126.188 206.19 125.473 256.406 118.765C265.559 117.537 274.68 116.111 283.768 114.486C291.864 113.039 300.839 110.32 305.731 118.686C309.086 124.386 309.533 132.012 309.013 138.453C308.853 141.258 307.632 143.898 305.586 145.83Z" fill="#E0E0E0"/>
</g>
<defs>
<clipPath id="clip0_30_2">
<rect width="338" height="487" fill="white"/>
</clipPath>
</defs>
</svg>
