<svg width="499" height="499" viewBox="0 0 499 499" fill="none" xmlns="http://www.w3.org/2000/svg">
<path d="M215.435 476.965H190.282C180.823 476.965 170.934 475.539 160.83 474.114C150.726 472.688 140.622 471.026 130.518 468.888C120.97 466.949 111.612 464.005 102.572 460.097C92.26 457.03 83.1702 450.246 76.7444 440.82C70.3186 431.396 66.9241 419.869 67.0997 408.07V75.4779C66.7724 71.1754 67.2531 66.8443 68.5109 62.7564C69.7686 58.6685 71.7762 54.9117 74.4088 51.7212C80.2222 45.6426 87.2041 41.0948 94.832 38.4176C113.89 31.6005 133.573 27.1386 153.521 25.114C174.159 23.055 192.647 22.0256 208.985 22.0256C239.874 21.614 270.652 26.1757 300.35 35.5669C326.204 43.7079 350.177 57.885 370.648 77.1409C390.684 96.6221 406.296 121.035 416.225 148.411C437.258 213.225 437.258 284.103 416.225 348.916C406.564 376.089 391.418 400.466 371.939 420.187C352.143 439.802 328.752 454.469 303.361 463.186C274.879 472.804 245.213 477.454 215.435 476.965ZM179.318 372.912C184.047 373.861 189.852 374.654 196.731 375.287C203.61 375.92 210.06 375.92 216.08 375.287C229.82 375.469 243.488 373.057 256.495 368.159C268.447 363.626 279.27 356.059 288.097 346.067C297.829 335.037 305.178 321.716 309.594 307.105C314.844 288.59 317.312 269.25 316.903 249.851C319.28 214.993 309.6 180.439 289.816 153.162C280.588 142.354 269.357 133.873 256.891 128.297C244.426 122.722 231.018 120.182 217.584 120.853H199.311L180.178 122.991L179.318 372.912Z" fill="#E0E0E0"/>
</svg>
